<svg width="154" height="29" viewBox="0 0 154 29" fill="none" xmlns="http://www.w3.org/2000/svg">
<path d="M0.678887 10L4.31889 0.822H6.16489L9.76589 10H7.60789L4.85189 2.382H5.59289L2.79789 10H0.678887ZM2.74589 8.336V6.672H7.75089V8.336H2.74589ZM13.6203 10.156C13.2476 10.156 12.8793 10.1083 12.5153 10.013C12.16 9.91767 11.8263 9.78333 11.5143 9.61C11.211 9.428 10.951 9.22 10.7343 8.986L11.8653 7.842C12.0733 8.06733 12.3203 8.245 12.6063 8.375C12.8923 8.49633 13.2043 8.557 13.5423 8.557C13.7763 8.557 13.954 8.52233 14.0753 8.453C14.2053 8.38367 14.2703 8.28833 14.2703 8.167C14.2703 8.011 14.1923 7.894 14.0363 7.816C13.889 7.72933 13.6983 7.65567 13.4643 7.595C13.2303 7.52567 12.9833 7.452 12.7233 7.374C12.4633 7.296 12.2163 7.18767 11.9823 7.049C11.7483 6.91033 11.5576 6.71967 11.4103 6.477C11.263 6.22567 11.1893 5.90933 11.1893 5.528C11.1893 5.12067 11.2933 4.76967 11.5013 4.475C11.7093 4.17167 12.004 3.93333 12.3853 3.76C12.7666 3.58667 13.213 3.5 13.7243 3.5C14.2616 3.5 14.7556 3.59533 15.2063 3.786C15.6656 3.968 16.0383 4.241 16.3243 4.605L15.1933 5.749C14.994 5.515 14.7686 5.35033 14.5173 5.255C14.2746 5.15967 14.0363 5.112 13.8023 5.112C13.577 5.112 13.408 5.14667 13.2953 5.216C13.1826 5.27667 13.1263 5.36767 13.1263 5.489C13.1263 5.619 13.2 5.723 13.3473 5.801C13.4946 5.879 13.6853 5.94833 13.9193 6.009C14.1533 6.06967 14.4003 6.14333 14.6603 6.23C14.9203 6.31667 15.1673 6.43367 15.4013 6.581C15.6353 6.72833 15.826 6.92767 15.9733 7.179C16.1206 7.42167 16.1943 7.74233 16.1943 8.141C16.1943 8.75633 15.9603 9.246 15.4923 9.61C15.033 9.974 14.409 10.156 13.6203 10.156ZM22.0964 10V6.399C22.0964 6.06967 21.9924 5.80533 21.7844 5.606C21.5851 5.398 21.3294 5.294 21.0174 5.294C20.8007 5.294 20.6101 5.34167 20.4454 5.437C20.2807 5.52367 20.1507 5.65367 20.0554 5.827C19.9601 5.99167 19.9124 6.18233 19.9124 6.399L19.1454 6.022C19.1454 5.528 19.2494 5.09467 19.4574 4.722C19.6654 4.34933 19.9557 4.06333 20.3284 3.864C20.7011 3.656 21.1301 3.552 21.6154 3.552C22.1094 3.552 22.5427 3.656 22.9154 3.864C23.2881 4.06333 23.5741 4.345 23.7734 4.709C23.9814 5.06433 24.0854 5.48033 24.0854 5.957V10H22.0964ZM17.9234 10V0.562H19.9124V10H17.9234ZM26.0128 10V3.682H28.0018V10H26.0128ZM28.0018 6.529L27.1698 5.879C27.3345 5.14233 27.6118 4.57033 28.0018 4.163C28.3918 3.75567 28.9335 3.552 29.6268 3.552C29.9302 3.552 30.1945 3.59967 30.4198 3.695C30.6538 3.78167 30.8575 3.92033 31.0308 4.111L29.8478 5.606C29.7612 5.51067 29.6528 5.437 29.5228 5.385C29.3928 5.333 29.2455 5.307 29.0808 5.307C28.7515 5.307 28.4872 5.411 28.2878 5.619C28.0972 5.81833 28.0018 6.12167 28.0018 6.529ZM34.672 10.13C34.0913 10.13 33.5713 9.987 33.112 9.701C32.6613 9.415 32.3016 9.025 32.033 8.531C31.773 8.037 31.643 7.47367 31.643 6.841C31.643 6.20833 31.773 5.645 32.033 5.151C32.3016 4.657 32.6613 4.267 33.112 3.981C33.5713 3.695 34.0913 3.552 34.672 3.552C35.0966 3.552 35.478 3.63433 35.816 3.799C36.1626 3.96367 36.4443 4.19333 36.661 4.488C36.8776 4.774 36.999 5.10333 37.025 5.476V8.206C36.999 8.57867 36.8776 8.91233 36.661 9.207C36.453 9.493 36.1756 9.71833 35.829 9.883C35.4823 10.0477 35.0966 10.13 34.672 10.13ZM35.075 8.336C35.4996 8.336 35.842 8.19733 36.102 7.92C36.362 7.634 36.492 7.27433 36.492 6.841C36.492 6.54633 36.4313 6.28633 36.31 6.061C36.1973 5.83567 36.0326 5.66233 35.816 5.541C35.608 5.411 35.3653 5.346 35.088 5.346C34.8106 5.346 34.5636 5.411 34.347 5.541C34.139 5.66233 33.97 5.83567 33.84 6.061C33.7186 6.28633 33.658 6.54633 33.658 6.841C33.658 7.127 33.7186 7.38267 33.84 7.608C33.9613 7.83333 34.1303 8.011 34.347 8.141C34.5636 8.271 34.8063 8.336 35.075 8.336ZM36.414 10V8.297L36.713 6.763L36.414 5.229V3.682H38.364V10H36.414ZM41.2204 10V3.136C41.2204 2.62467 41.3331 2.16533 41.5584 1.758C41.7924 1.342 42.1174 1.017 42.5334 0.782999C42.9494 0.540333 43.4434 0.418999 44.0154 0.418999C44.4487 0.418999 44.8257 0.492666 45.1464 0.64C45.4757 0.778666 45.7617 0.973666 46.0044 1.225L44.7564 2.473C44.6697 2.38633 44.5701 2.32133 44.4574 2.278C44.3534 2.226 44.2277 2.2 44.0804 2.2C43.8117 2.2 43.5994 2.278 43.4434 2.434C43.2874 2.59 43.2094 2.80233 43.2094 3.071V10H41.2204ZM39.8294 5.372V3.682H45.0294V5.372H39.8294ZM51.3991 10L49.2151 3.682H51.1651L52.5171 8.271L51.9451 8.284L53.4401 3.682H55.0521L56.5601 8.284L55.9751 8.271L57.3401 3.682H59.2901L57.1061 10H55.4811L54.0121 5.632H54.5061L53.0111 10H51.3991ZM64.0167 10V0.822H66.0577V10H64.0167ZM69.6977 10V0.822H71.7517V10H69.6977ZM65.2387 6.165V4.397H70.3737V6.165H65.2387ZM77.1008 10.143C76.4161 10.143 75.8051 10.0043 75.2678 9.727C74.7391 9.441 74.3231 9.04667 74.0198 8.544C73.7165 8.04133 73.5648 7.47367 73.5648 6.841C73.5648 6.20833 73.7121 5.645 74.0068 5.151C74.3101 4.64833 74.7175 4.254 75.2288 3.968C75.7401 3.682 76.3165 3.539 76.9578 3.539C77.5818 3.539 78.1321 3.67333 78.6088 3.942C79.0855 4.21067 79.4581 4.58333 79.7268 5.06C80.0041 5.53667 80.1428 6.08267 80.1428 6.698C80.1428 6.81067 80.1341 6.932 80.1168 7.062C80.1081 7.18333 80.0865 7.32633 80.0518 7.491L74.6048 7.504V6.139L79.2068 6.126L78.3488 6.698C78.3401 6.334 78.2838 6.035 78.1798 5.801C78.0758 5.55833 77.9198 5.37633 77.7118 5.255C77.5125 5.125 77.2655 5.06 76.9708 5.06C76.6588 5.06 76.3858 5.13367 76.1518 5.281C75.9265 5.41967 75.7488 5.619 75.6188 5.879C75.4975 6.139 75.4368 6.45533 75.4368 6.828C75.4368 7.20067 75.5018 7.52133 75.6318 7.79C75.7705 8.05 75.9611 8.25367 76.2038 8.401C76.4551 8.53967 76.7498 8.609 77.0878 8.609C77.3998 8.609 77.6815 8.557 77.9328 8.453C78.1841 8.34033 78.4051 8.17567 78.5958 7.959L79.6878 9.051C79.3758 9.415 78.9988 9.688 78.5568 9.87C78.1148 10.052 77.6295 10.143 77.1008 10.143ZM84.0539 10.156C83.6812 10.156 83.3129 10.1083 82.9489 10.013C82.5935 9.91767 82.2599 9.78333 81.9479 9.61C81.6445 9.428 81.3845 9.22 81.1679 8.986L82.2989 7.842C82.5069 8.06733 82.7539 8.245 83.0399 8.375C83.3259 8.49633 83.6379 8.557 83.9759 8.557C84.2099 8.557 84.3875 8.52233 84.5089 8.453C84.6389 8.38367 84.7039 8.28833 84.7039 8.167C84.7039 8.011 84.6259 7.894 84.4699 7.816C84.3225 7.72933 84.1319 7.65567 83.8979 7.595C83.6639 7.52567 83.4169 7.452 83.1569 7.374C82.8969 7.296 82.6499 7.18767 82.4159 7.049C82.1819 6.91033 81.9912 6.71967 81.8439 6.477C81.6965 6.22567 81.6229 5.90933 81.6229 5.528C81.6229 5.12067 81.7269 4.76967 81.9349 4.475C82.1429 4.17167 82.4375 3.93333 82.8189 3.76C83.2002 3.58667 83.6465 3.5 84.1579 3.5C84.6952 3.5 85.1892 3.59533 85.6399 3.786C86.0992 3.968 86.4719 4.241 86.7579 4.605L85.6269 5.749C85.4275 5.515 85.2022 5.35033 84.9509 5.255C84.7082 5.15967 84.4699 5.112 84.2359 5.112C84.0105 5.112 83.8415 5.14667 83.7289 5.216C83.6162 5.27667 83.5599 5.36767 83.5599 5.489C83.5599 5.619 83.6335 5.723 83.7809 5.801C83.9282 5.879 84.1189 5.94833 84.3529 6.009C84.5869 6.06967 84.8339 6.14333 85.0939 6.23C85.3539 6.31667 85.6009 6.43367 85.8349 6.581C86.0689 6.72833 86.2595 6.92767 86.4069 7.179C86.5542 7.42167 86.6279 7.74233 86.6279 8.141C86.6279 8.75633 86.3939 9.246 85.9259 9.61C85.4665 9.974 84.8425 10.156 84.0539 10.156ZM92.53 10V6.399C92.53 6.06967 92.426 5.80533 92.218 5.606C92.0187 5.398 91.763 5.294 91.451 5.294C91.2343 5.294 91.0437 5.34167 90.879 5.437C90.7143 5.52367 90.5843 5.65367 90.489 5.827C90.3937 5.99167 90.346 6.18233 90.346 6.399L89.579 6.022C89.579 5.528 89.683 5.09467 89.891 4.722C90.099 4.34933 90.3893 4.06333 90.762 3.864C91.1347 3.656 91.5637 3.552 92.049 3.552C92.543 3.552 92.9763 3.656 93.349 3.864C93.7217 4.06333 94.0077 4.345 94.207 4.709C94.415 5.06433 94.519 5.48033 94.519 5.957V10H92.53ZM88.357 10V0.562H90.346V10H88.357ZM99.0854 10.13C98.5048 10.13 97.9848 9.987 97.5254 9.701C97.0748 9.415 96.7151 9.025 96.4464 8.531C96.1864 8.037 96.0564 7.47367 96.0564 6.841C96.0564 6.20833 96.1864 5.645 96.4464 5.151C96.7151 4.657 97.0748 4.267 97.5254 3.981C97.9848 3.695 98.5048 3.552 99.0854 3.552C99.5101 3.552 99.8914 3.63433 100.229 3.799C100.576 3.96367 100.858 4.19333 101.074 4.488C101.291 4.774 101.412 5.10333 101.438 5.476V8.206C101.412 8.57867 101.291 8.91233 101.074 9.207C100.866 9.493 100.589 9.71833 100.242 9.883C99.8958 10.0477 99.5101 10.13 99.0854 10.13ZM99.4884 8.336C99.9131 8.336 100.255 8.19733 100.515 7.92C100.775 7.634 100.905 7.27433 100.905 6.841C100.905 6.54633 100.845 6.28633 100.723 6.061C100.611 5.83567 100.446 5.66233 100.229 5.541C100.021 5.411 99.7788 5.346 99.5014 5.346C99.2241 5.346 98.9771 5.411 98.7604 5.541C98.5524 5.66233 98.3834 5.83567 98.2534 6.061C98.1321 6.28633 98.0714 6.54633 98.0714 6.841C98.0714 7.127 98.1321 7.38267 98.2534 7.608C98.3748 7.83333 98.5438 8.011 98.7604 8.141C98.9771 8.271 99.2198 8.336 99.4884 8.336ZM100.827 10V8.297L101.126 6.763L100.827 5.229V3.682H102.777V10H100.827ZM104.828 10V3.682H106.817V10H104.828ZM108.871 10V6.308C108.871 5.98733 108.771 5.74033 108.572 5.567C108.381 5.385 108.143 5.294 107.857 5.294C107.658 5.294 107.48 5.33733 107.324 5.424C107.168 5.502 107.042 5.61467 106.947 5.762C106.86 5.90933 106.817 6.09133 106.817 6.308L106.05 5.97C106.05 5.46733 106.158 5.03833 106.375 4.683C106.592 4.319 106.886 4.04167 107.259 3.851C107.632 3.65167 108.052 3.552 108.52 3.552C108.962 3.552 109.356 3.65167 109.703 3.851C110.058 4.05033 110.34 4.32767 110.548 4.683C110.756 5.03833 110.86 5.463 110.86 5.957V10H108.871ZM112.914 10V6.308C112.914 5.98733 112.814 5.74033 112.615 5.567C112.424 5.385 112.186 5.294 111.9 5.294C111.701 5.294 111.523 5.33733 111.367 5.424C111.211 5.502 111.085 5.61467 110.99 5.762C110.903 5.90933 110.86 6.09133 110.86 6.308L109.716 6.152C109.733 5.61467 109.859 5.15533 110.093 4.774C110.336 4.384 110.652 4.085 111.042 3.877C111.441 3.66033 111.887 3.552 112.381 3.552C112.866 3.552 113.295 3.656 113.668 3.864C114.049 4.06333 114.348 4.35367 114.565 4.735C114.79 5.10767 114.903 5.55833 114.903 6.087V10H112.914ZM120.135 10V0.822H122.176V10H120.135ZM121.708 10V8.206H126.245V10H121.708ZM127.89 10V3.682H129.879V10H127.89ZM128.891 2.811C128.579 2.811 128.319 2.707 128.111 2.499C127.912 2.28233 127.812 2.02233 127.812 1.719C127.812 1.407 127.912 1.147 128.111 0.939C128.319 0.731 128.579 0.627 128.891 0.627C129.203 0.627 129.459 0.731 129.658 0.939C129.858 1.147 129.957 1.407 129.957 1.719C129.957 2.02233 129.858 2.28233 129.658 2.499C129.459 2.707 129.203 2.811 128.891 2.811ZM135.57 10.13C135.145 10.13 134.755 10.0433 134.4 9.87C134.044 9.688 133.754 9.44967 133.529 9.155C133.303 8.85167 133.173 8.51367 133.139 8.141V5.476C133.173 5.10333 133.303 4.774 133.529 4.488C133.754 4.19333 134.044 3.96367 134.4 3.799C134.755 3.63433 135.145 3.552 135.57 3.552C136.168 3.552 136.696 3.695 137.156 3.981C137.624 4.267 137.988 4.657 138.248 5.151C138.516 5.645 138.651 6.20833 138.651 6.841C138.651 7.47367 138.516 8.037 138.248 8.531C137.988 9.025 137.624 9.415 137.156 9.701C136.696 9.987 136.168 10.13 135.57 10.13ZM135.219 8.336C135.496 8.336 135.739 8.271 135.947 8.141C136.163 8.011 136.332 7.83333 136.454 7.608C136.575 7.38267 136.636 7.127 136.636 6.841C136.636 6.54633 136.575 6.28633 136.454 6.061C136.332 5.83567 136.163 5.66233 135.947 5.541C135.739 5.411 135.496 5.346 135.219 5.346C134.941 5.346 134.694 5.411 134.478 5.541C134.261 5.66233 134.092 5.83567 133.971 6.061C133.858 6.28633 133.802 6.54633 133.802 6.841C133.802 7.13567 133.862 7.39567 133.984 7.621C134.105 7.84633 134.27 8.024 134.478 8.154C134.694 8.27533 134.941 8.336 135.219 8.336ZM131.93 10V0.562H133.919V5.229L133.594 6.763L133.893 8.297V10H131.93ZM142.084 10.026L139.484 3.682H141.629L143.28 8.713H142.487L144.177 3.682H146.322L143.618 10.026H142.084ZM140.459 12.665L142.357 8.57L143.618 10.026L142.5 12.665H140.459ZM150.126 10.13C149.545 10.13 149.025 9.987 148.566 9.701C148.115 9.415 147.755 9.025 147.487 8.531C147.227 8.037 147.097 7.47367 147.097 6.841C147.097 6.20833 147.227 5.645 147.487 5.151C147.755 4.657 148.115 4.267 148.566 3.981C149.025 3.695 149.545 3.552 150.126 3.552C150.55 3.552 150.932 3.63433 151.27 3.799C151.616 3.96367 151.898 4.19333 152.115 4.488C152.331 4.774 152.453 5.10333 152.479 5.476V8.206C152.453 8.57867 152.331 8.91233 152.115 9.207C151.907 9.493 151.629 9.71833 151.283 9.883C150.936 10.0477 150.55 10.13 150.126 10.13ZM150.529 8.336C150.953 8.336 151.296 8.19733 151.556 7.92C151.816 7.634 151.946 7.27433 151.946 6.841C151.946 6.54633 151.885 6.28633 151.764 6.061C151.651 5.83567 151.486 5.66233 151.27 5.541C151.062 5.411 150.819 5.346 150.542 5.346C150.264 5.346 150.017 5.411 149.801 5.541C149.593 5.66233 149.424 5.83567 149.294 6.061C149.172 6.28633 149.112 6.54633 149.112 6.841C149.112 7.127 149.172 7.38267 149.294 7.608C149.415 7.83333 149.584 8.011 149.801 8.141C150.017 8.271 150.26 8.336 150.529 8.336ZM151.868 10V8.297L152.167 6.763L151.868 5.229V3.682H153.818V10H151.868ZM21.7963 26L25.4363 16.822H27.2823L30.8833 26H28.7253L25.9693 18.382H26.7103L23.9153 26H21.7963ZM23.8633 24.336V22.672H28.8683V24.336H23.8633ZM35.0162 26.143C34.4355 26.143 33.9198 26.026 33.4692 25.792C33.0272 25.5493 32.6805 25.22 32.4292 24.804C32.1778 24.3793 32.0522 23.894 32.0522 23.348V19.682H34.0412V23.322C34.0412 23.5387 34.0758 23.725 34.1452 23.881C34.2232 24.037 34.3358 24.1583 34.4832 24.245C34.6305 24.3317 34.8082 24.375 35.0162 24.375C35.3108 24.375 35.5448 24.284 35.7182 24.102C35.8915 23.9113 35.9782 23.6513 35.9782 23.322V19.682H37.9672V23.335C37.9672 23.8897 37.8415 24.3793 37.5902 24.804C37.3388 25.22 36.9922 25.5493 36.5502 25.792C36.1082 26.026 35.5968 26.143 35.0162 26.143ZM40.763 26V17.069H42.752V26H40.763ZM39.333 21.372V19.682H44.182V21.372H39.333ZM48.6234 26.143C47.9734 26.143 47.3841 26 46.8554 25.714C46.3354 25.4193 45.9237 25.0207 45.6204 24.518C45.3171 24.0153 45.1654 23.452 45.1654 22.828C45.1654 22.204 45.3171 21.645 45.6204 21.151C45.9237 20.657 46.3354 20.267 46.8554 19.981C47.3754 19.6863 47.9647 19.539 48.6234 19.539C49.2821 19.539 49.8714 19.682 50.3914 19.968C50.9114 20.254 51.3231 20.6483 51.6264 21.151C51.9297 21.645 52.0814 22.204 52.0814 22.828C52.0814 23.452 51.9297 24.0153 51.6264 24.518C51.3231 25.0207 50.9114 25.4193 50.3914 25.714C49.8714 26 49.2821 26.143 48.6234 26.143ZM48.6234 24.336C48.9094 24.336 49.1607 24.2753 49.3774 24.154C49.5941 24.024 49.7587 23.8463 49.8714 23.621C49.9927 23.387 50.0534 23.1227 50.0534 22.828C50.0534 22.5333 49.9927 22.2777 49.8714 22.061C49.7501 21.8357 49.5811 21.6623 49.3644 21.541C49.1564 21.411 48.9094 21.346 48.6234 21.346C48.3461 21.346 48.0991 21.411 47.8824 21.541C47.6657 21.6623 47.4967 21.8357 47.3754 22.061C47.2541 22.2863 47.1934 22.5463 47.1934 22.841C47.1934 23.127 47.2541 23.387 47.3754 23.621C47.4967 23.8463 47.6657 24.024 47.8824 24.154C48.0991 24.2753 48.3461 24.336 48.6234 24.336ZM59.7852 26.143C59.0312 26.143 58.3812 26.0217 57.8352 25.779C57.2979 25.5277 56.8039 25.1507 56.3532 24.648L57.6792 23.335C57.9739 23.673 58.2989 23.9373 58.6542 24.128C59.0182 24.31 59.4385 24.401 59.9152 24.401C60.3485 24.401 60.6822 24.323 60.9162 24.167C61.1589 24.011 61.2802 23.7943 61.2802 23.517C61.2802 23.2657 61.2022 23.062 61.0462 22.906C60.8902 22.75 60.6822 22.6157 60.4222 22.503C60.1709 22.3903 59.8892 22.282 59.5772 22.178C59.2739 22.074 58.9705 21.957 58.6672 21.827C58.3639 21.6883 58.0822 21.5193 57.8222 21.32C57.5709 21.112 57.3672 20.8563 57.2112 20.553C57.0552 20.241 56.9772 19.851 56.9772 19.383C56.9772 18.8197 57.1115 18.3343 57.3802 17.927C57.6575 17.5197 58.0389 17.212 58.5242 17.004C59.0095 16.7873 59.5685 16.679 60.2012 16.679C60.8425 16.679 61.4275 16.7917 61.9562 17.017C62.4935 17.2423 62.9355 17.55 63.2822 17.94L61.9562 19.253C61.6789 18.967 61.3972 18.7547 61.1112 18.616C60.8339 18.4773 60.5175 18.408 60.1622 18.408C59.8069 18.408 59.5252 18.4773 59.3172 18.616C59.1092 18.746 59.0052 18.9367 59.0052 19.188C59.0052 19.422 59.0832 19.6127 59.2392 19.76C59.3952 19.8987 59.5989 20.02 59.8502 20.124C60.1102 20.228 60.3919 20.332 60.6952 20.436C61.0072 20.54 61.3149 20.6613 61.6182 20.8C61.9215 20.9387 62.1989 21.1163 62.4502 21.333C62.7102 21.541 62.9182 21.8097 63.0742 22.139C63.2302 22.4597 63.3082 22.8583 63.3082 23.335C63.3082 24.2103 62.9962 24.8993 62.3722 25.402C61.7482 25.896 60.8859 26.143 59.7852 26.143ZM68.7163 26.13C68.2916 26.13 67.9016 26.0477 67.5463 25.883C67.191 25.7183 66.9006 25.493 66.6753 25.207C66.45 24.9123 66.32 24.5787 66.2853 24.206V21.541C66.32 21.1683 66.45 20.8303 66.6753 20.527C66.9006 20.2237 67.191 19.9853 67.5463 19.812C67.9016 19.6387 68.2916 19.552 68.7163 19.552C69.3143 19.552 69.843 19.695 70.3023 19.981C70.7703 20.267 71.1343 20.657 71.3943 21.151C71.663 21.645 71.7973 22.2083 71.7973 22.841C71.7973 23.4737 71.663 24.037 71.3943 24.531C71.1343 25.025 70.7703 25.415 70.3023 25.701C69.843 25.987 69.3143 26.13 68.7163 26.13ZM68.3523 24.336C68.6383 24.336 68.8853 24.271 69.0933 24.141C69.31 24.011 69.479 23.8333 69.6003 23.608C69.7216 23.3827 69.7823 23.127 69.7823 22.841C69.7823 22.5463 69.7216 22.2863 69.6003 22.061C69.479 21.8357 69.31 21.6623 69.0933 21.541C68.8853 21.411 68.6426 21.346 68.3653 21.346C68.088 21.346 67.841 21.411 67.6243 21.541C67.4163 21.6623 67.2516 21.8357 67.1303 22.061C67.009 22.2863 66.9483 22.5463 66.9483 22.841C66.9483 23.127 67.0046 23.3827 67.1173 23.608C67.2386 23.8333 67.4076 24.011 67.6243 24.141C67.841 24.271 68.0836 24.336 68.3523 24.336ZM65.0763 28.665V19.682H67.0653V21.307L66.7403 22.841L67.0393 24.375V28.665H65.0763ZM76.0968 26.13C75.5161 26.13 74.9961 25.987 74.5368 25.701C74.0861 25.415 73.7264 25.025 73.4578 24.531C73.1978 24.037 73.0678 23.4737 73.0678 22.841C73.0678 22.2083 73.1978 21.645 73.4578 21.151C73.7264 20.657 74.0861 20.267 74.5368 19.981C74.9961 19.695 75.5161 19.552 76.0968 19.552C76.5214 19.552 76.9028 19.6343 77.2408 19.799C77.5874 19.9637 77.8691 20.1933 78.0858 20.488C78.3024 20.774 78.4238 21.1033 78.4498 21.476V24.206C78.4238 24.5787 78.3024 24.9123 78.0858 25.207C77.8778 25.493 77.6004 25.7183 77.2538 25.883C76.9071 26.0477 76.5214 26.13 76.0968 26.13ZM76.4998 24.336C76.9244 24.336 77.2668 24.1973 77.5268 23.92C77.7868 23.634 77.9168 23.2743 77.9168 22.841C77.9168 22.5463 77.8561 22.2863 77.7348 22.061C77.6221 21.8357 77.4574 21.6623 77.2408 21.541C77.0328 21.411 76.7901 21.346 76.5128 21.346C76.2354 21.346 75.9884 21.411 75.7718 21.541C75.5638 21.6623 75.3948 21.8357 75.2648 22.061C75.1434 22.2863 75.0828 22.5463 75.0828 22.841C75.0828 23.127 75.1434 23.3827 75.2648 23.608C75.3861 23.8333 75.5551 24.011 75.7718 24.141C75.9884 24.271 76.2311 24.336 76.4998 24.336ZM77.8388 26V24.297L78.1378 22.763L77.8388 21.229V19.682H79.7888V26H77.8388ZM81.8392 26V19.682H83.8282V26H81.8392ZM83.8282 22.529L82.9962 21.879C83.1609 21.1423 83.4382 20.5703 83.8282 20.163C84.2182 19.7557 84.7599 19.552 85.4532 19.552C85.7565 19.552 86.0209 19.5997 86.2462 19.695C86.4802 19.7817 86.6839 19.9203 86.8572 20.111L85.6742 21.606C85.5875 21.5107 85.4792 21.437 85.3492 21.385C85.2192 21.333 85.0719 21.307 84.9072 21.307C84.5779 21.307 84.3135 21.411 84.1142 21.619C83.9235 21.8183 83.8282 22.1217 83.8282 22.529ZM90.9793 26.143C90.2947 26.143 89.6837 26.0043 89.1463 25.727C88.6177 25.441 88.2017 25.0467 87.8983 24.544C87.595 24.0413 87.4433 23.4737 87.4433 22.841C87.4433 22.2083 87.5907 21.645 87.8853 21.151C88.1887 20.6483 88.596 20.254 89.1073 19.968C89.6187 19.682 90.195 19.539 90.8363 19.539C91.4603 19.539 92.0107 19.6733 92.4873 19.942C92.964 20.2107 93.3367 20.5833 93.6053 21.06C93.8827 21.5367 94.0213 22.0827 94.0213 22.698C94.0213 22.8107 94.0127 22.932 93.9953 23.062C93.9867 23.1833 93.965 23.3263 93.9303 23.491L88.4833 23.504V22.139L93.0853 22.126L92.2273 22.698C92.2187 22.334 92.1623 22.035 92.0583 21.801C91.9543 21.5583 91.7983 21.3763 91.5903 21.255C91.391 21.125 91.144 21.06 90.8493 21.06C90.5373 21.06 90.2643 21.1337 90.0303 21.281C89.805 21.4197 89.6273 21.619 89.4973 21.879C89.376 22.139 89.3153 22.4553 89.3153 22.828C89.3153 23.2007 89.3803 23.5213 89.5103 23.79C89.649 24.05 89.8397 24.2537 90.0823 24.401C90.3337 24.5397 90.6283 24.609 90.9663 24.609C91.2783 24.609 91.56 24.557 91.8113 24.453C92.0627 24.3403 92.2837 24.1757 92.4743 23.959L93.5663 25.051C93.2543 25.415 92.8773 25.688 92.4353 25.87C91.9933 26.052 91.508 26.143 90.9793 26.143ZM102.397 26.13C101.972 26.13 101.582 26.0477 101.227 25.883C100.872 25.7183 100.581 25.493 100.356 25.207C100.131 24.9123 100.001 24.5787 99.966 24.206V21.541C100.001 21.1683 100.131 20.8303 100.356 20.527C100.581 20.2237 100.872 19.9853 101.227 19.812C101.582 19.6387 101.972 19.552 102.397 19.552C102.995 19.552 103.524 19.695 103.983 19.981C104.451 20.267 104.815 20.657 105.075 21.151C105.344 21.645 105.478 22.2083 105.478 22.841C105.478 23.4737 105.344 24.037 105.075 24.531C104.815 25.025 104.451 25.415 103.983 25.701C103.524 25.987 102.995 26.13 102.397 26.13ZM102.033 24.336C102.319 24.336 102.566 24.271 102.774 24.141C102.991 24.011 103.16 23.8333 103.281 23.608C103.402 23.3827 103.463 23.127 103.463 22.841C103.463 22.5463 103.402 22.2863 103.281 22.061C103.16 21.8357 102.991 21.6623 102.774 21.541C102.566 21.411 102.323 21.346 102.046 21.346C101.769 21.346 101.522 21.411 101.305 21.541C101.097 21.6623 100.932 21.8357 100.811 22.061C100.69 22.2863 100.629 22.5463 100.629 22.841C100.629 23.127 100.685 23.3827 100.798 23.608C100.919 23.8333 101.088 24.011 101.305 24.141C101.522 24.271 101.764 24.336 102.033 24.336ZM98.757 28.665V19.682H100.746V21.307L100.421 22.841L100.72 24.375V28.665H98.757ZM109.777 26.13C109.197 26.13 108.677 25.987 108.217 25.701C107.767 25.415 107.407 25.025 107.138 24.531C106.878 24.037 106.748 23.4737 106.748 22.841C106.748 22.2083 106.878 21.645 107.138 21.151C107.407 20.657 107.767 20.267 108.217 19.981C108.677 19.695 109.197 19.552 109.777 19.552C110.202 19.552 110.583 19.6343 110.921 19.799C111.268 19.9637 111.55 20.1933 111.766 20.488C111.983 20.774 112.104 21.1033 112.13 21.476V24.206C112.104 24.5787 111.983 24.9123 111.766 25.207C111.558 25.493 111.281 25.7183 110.934 25.883C110.588 26.0477 110.202 26.13 109.777 26.13ZM110.18 24.336C110.605 24.336 110.947 24.1973 111.207 23.92C111.467 23.634 111.597 23.2743 111.597 22.841C111.597 22.5463 111.537 22.2863 111.415 22.061C111.303 21.8357 111.138 21.6623 110.921 21.541C110.713 21.411 110.471 21.346 110.193 21.346C109.916 21.346 109.669 21.411 109.452 21.541C109.244 21.6623 109.075 21.8357 108.945 22.061C108.824 22.2863 108.763 22.5463 108.763 22.841C108.763 23.127 108.824 23.3827 108.945 23.608C109.067 23.8333 109.236 24.011 109.452 24.141C109.669 24.271 109.912 24.336 110.18 24.336ZM111.519 26V24.297L111.818 22.763L111.519 21.229V19.682H113.469V26H111.519ZM115.52 26V19.682H117.509V26H115.52ZM117.509 22.529L116.677 21.879C116.842 21.1423 117.119 20.5703 117.509 20.163C117.899 19.7557 118.441 19.552 119.134 19.552C119.437 19.552 119.702 19.5997 119.927 19.695C120.161 19.7817 120.365 19.9203 120.538 20.111L119.355 21.606C119.268 21.5107 119.16 21.437 119.03 21.385C118.9 21.333 118.753 21.307 118.588 21.307C118.259 21.307 117.994 21.411 117.795 21.619C117.604 21.8183 117.509 22.1217 117.509 22.529ZM122.678 26V17.069H124.667V26H122.678ZM121.248 21.372V19.682H126.097V21.372H121.248ZM129.798 26.156C129.425 26.156 129.057 26.1083 128.693 26.013C128.337 25.9177 128.004 25.7833 127.692 25.61C127.388 25.428 127.128 25.22 126.912 24.986L128.043 23.842C128.251 24.0673 128.498 24.245 128.784 24.375C129.07 24.4963 129.382 24.557 129.72 24.557C129.954 24.557 130.131 24.5223 130.253 24.453C130.383 24.3837 130.448 24.2883 130.448 24.167C130.448 24.011 130.37 23.894 130.214 23.816C130.066 23.7293 129.876 23.6557 129.642 23.595C129.408 23.5257 129.161 23.452 128.901 23.374C128.641 23.296 128.394 23.1877 128.16 23.049C127.926 22.9103 127.735 22.7197 127.588 22.477C127.44 22.2257 127.367 21.9093 127.367 21.528C127.367 21.1207 127.471 20.7697 127.679 20.475C127.887 20.1717 128.181 19.9333 128.563 19.76C128.944 19.5867 129.39 19.5 129.902 19.5C130.439 19.5 130.933 19.5953 131.384 19.786C131.843 19.968 132.216 20.241 132.502 20.605L131.371 21.749C131.171 21.515 130.946 21.3503 130.695 21.255C130.452 21.1597 130.214 21.112 129.98 21.112C129.754 21.112 129.585 21.1467 129.473 21.216C129.36 21.2767 129.304 21.3677 129.304 21.489C129.304 21.619 129.377 21.723 129.525 21.801C129.672 21.879 129.863 21.9483 130.097 22.009C130.331 22.0697 130.578 22.1433 130.838 22.23C131.098 22.3167 131.345 22.4337 131.579 22.581C131.813 22.7283 132.003 22.9277 132.151 23.179C132.298 23.4217 132.372 23.7423 132.372 24.141C132.372 24.7563 132.138 25.246 131.67 25.61C131.21 25.974 130.586 26.156 129.798 26.156Z" fill="#094E7A"/>
</svg>
